<?xml version="1.0" encoding="UTF-8"?>
<svg fill="none" version="1.1" viewBox="0 0 152.46 41.913" xmlns="http://www.w3.org/2000/svg">
 <path d="m8.8378 0h22.264c4.8961 0 8.8378 3.9426 8.8378 8.8399v24.234c0 4.8973-3.9417 8.8399-8.8378 8.8399h-22.264c-4.8961 0-8.8378-3.9426-8.8378-8.8399v-24.234c0-4.8973 3.9417-8.8399 8.8378-8.8399z" fill="#000"/>
 <path d="m8.8378 0h22.264c4.8961 0 8.8378 3.9426 8.8378 8.8399v24.234c0 4.8973-3.9417 8.8399-8.8378 8.8399h-22.264c-4.8961 0-8.8378-3.9426-8.8378-8.8399v-24.234c0-4.8973 3.9417-8.8399 8.8378-8.8399z" fill="url(#paint0_linear)"/>
 <g fill="#000">
  <path d="m64.238 35.811-12.963-28.895h-0.9872l13.521 30.054h0.8584l13.521-30.054h-0.9873z"/>
  <path d="m82.91 8.6339c0.6009 0 1.116-0.51499 1.116-1.1163 0-0.60106-0.5149-1.1163-1.116-1.1163-0.601 0-1.116 0.51503-1.116 1.1163 0 0.60107 0.5148 1.1163 1.116 1.1163zm0.4293 28.337v-22.197h-0.8585v22.197z"/>
  <path d="m102.65 34.91c-0.945 0.9016-2.275 1.374-3.6916 1.374-3.0047 0-4.55-1.7175-4.55-4.8516v-15.843h7.5116v-0.8157h-7.5116v-4.8516h-0.8585v4.8516h-4.2924v0.8157h4.2924v16.057c0 3.263 1.8457 5.4526 5.3655 5.4526 1.5886 0 3.3056-0.515 4.3356-1.5885z"/>
  <path d="m116.96 14.645c-3.348 0-6.525 1.2881-8.628 3.306l0.601 0.6011c1.932-1.8462 4.765-3.0913 8.07-3.0913 4.593 0 7.039 2.3614 7.039 6.9983v2.4472h-8.413c-5.923 0-7.898 2.7907-7.898 5.9678 0 3.7353 2.876 6.2255 7.855 6.2255 4.164 0 7.04-1.8892 8.456-4.8516v4.7228h0.859v-14.555c0-5.0662-2.79-7.7711-7.941-7.7711zm-1.374 21.639c-4.421 0-6.996-2.1037-6.996-5.4526 0-2.9625 1.974-5.1092 6.996-5.1092h8.456v4.8945c-1.459 3.6065-4.163 5.6673-8.456 5.6673z"/>
  <path d="m152.46 25.636c0-6.4401-4.464-10.991-10.302-10.991-5.88 0-10.259 4.6369-10.259 11.206s4.679 11.249 11.075 11.249c3.176 0 6.181-1.2452 8.155-3.6495l-0.601-0.601c-1.76 2.3184-4.593 3.4347-7.554 3.4347-5.881 0-10.259-4.2934-10.259-10.433h19.745zm-10.302-10.175c5.237 0 9.186 4.0787 9.486 9.5743h-18.929c0.301-5.4956 4.206-9.5743 9.443-9.5743z"/>
 </g>
 <path d="m18.046 7.125-4.5404 4.5416 6.1868 6.1883-6.1868 6.1883 3.1002 3.101h-6.5368v6.4243h19.993v-6.4243h-10.575l9.2843-9.2893z" fill="#fff" stroke="#000" stroke-linecap="round" stroke-linejoin="round" stroke-width=".10726"/>
 <defs>
  <linearGradient id="paint0_linear" x1=".99997" x2="40" y1="-4.5" y2="50.5" gradientTransform="translate(-.54321 -.54336)" gradientUnits="userSpaceOnUse">
   <stop stop-color="#FF00F5" offset="0"/>
   <stop stop-color="#0094FF" offset="1"/>
  </linearGradient>
 </defs>
</svg>
