<svg width="169" height="43" viewBox="0 0 169 43" fill="none" xmlns="http://www.w3.org/2000/svg">
<path d="M9.38101 0.543365H31.6449C36.541 0.543365 40.4827 4.48592 40.4827 9.38322V33.6168C40.4827 38.5141 36.541 42.4567 31.6449 42.4567H9.38101C4.48492 42.4567 0.543243 38.5141 0.543243 33.6168V9.38322C0.543243 4.48592 4.48492 0.543365 9.38101 0.543365Z" fill="black"/>
<path d="M9.38101 0.543365H31.6449C36.541 0.543365 40.4827 4.48592 40.4827 9.38322V33.6168C40.4827 38.5141 36.541 42.4567 31.6449 42.4567H9.38101C4.48492 42.4567 0.543243 38.5141 0.543243 33.6168V9.38322C0.543243 4.48592 4.48492 0.543365 9.38101 0.543365Z" fill="url(#paint0_linear)"/>
<path d="M64.7811 36.3545L51.8181 7.45992H50.8309L64.3519 37.5138H65.2104L78.7314 7.45992H77.7442L64.7811 36.3545Z" fill="black"/>
<path d="M83.4529 9.17727C84.0538 9.17727 84.5689 8.66228 84.5689 8.061C84.5689 7.45994 84.054 6.9447 83.4529 6.9447C82.852 6.9447 82.3369 7.45973 82.3369 8.061C82.3369 8.66207 82.8517 9.17727 83.4529 9.17727ZM83.8822 37.5138V15.3169H83.0238V37.5138H83.8822Z" fill="black"/>
<path d="M103.198 35.4529C102.253 36.3545 100.923 36.8269 99.5064 36.8269C96.5017 36.8269 94.9564 35.1094 94.9564 31.9753V16.1326H102.468V15.3169H94.9564V10.4653H94.0979V15.3169H89.8056V16.1326H94.0979V32.19C94.0979 35.453 95.9437 37.6426 99.4634 37.6426C101.052 37.6426 102.769 37.1276 103.799 36.0541L103.198 35.4529Z" fill="black"/>
<path d="M117.502 15.188C114.154 15.188 110.978 16.4761 108.874 18.494L109.475 19.0951C111.407 17.2489 114.24 16.0038 117.545 16.0038C122.138 16.0038 124.584 18.3652 124.584 23.0021V25.4493H116.171C110.248 25.4493 108.273 28.24 108.273 31.4171C108.273 35.1524 111.149 37.6426 116.128 37.6426C120.292 37.6426 123.168 35.7534 124.584 32.791V37.5138H125.443V22.9591C125.443 17.8929 122.653 15.188 117.502 15.188V15.188ZM116.128 36.8268C111.707 36.8268 109.132 34.7231 109.132 31.3742C109.132 28.4117 111.106 26.265 116.128 26.265H124.584V31.1595C123.125 34.766 120.421 36.8268 116.128 36.8268Z" fill="black"/>
<path d="M153 26.1792C153 19.7391 148.536 15.188 142.698 15.188C136.818 15.188 132.439 19.8249 132.439 26.3938C132.439 32.9627 137.118 37.6426 143.514 37.6426C146.69 37.6426 149.695 36.3974 151.669 33.9931L151.068 33.3921C149.308 35.7105 146.476 36.8268 143.514 36.8268C137.633 36.8268 133.255 32.5334 133.255 26.3938H153V26.1792ZM142.698 16.0038C147.935 16.0038 151.884 20.0825 152.184 25.5781H133.255C133.556 20.0825 137.462 16.0038 142.698 16.0038Z" fill="black"/>
<path d="M18.5898 7.66835L14.0493 12.2099L20.2361 18.3982L14.0493 24.5865L17.1496 27.6875H10.6128V34.1118H30.6054V27.6875H20.03L29.3144 18.3982L18.5898 7.66835Z" fill="white" stroke="black" stroke-width="0.107262" stroke-linecap="round" stroke-linejoin="round"/>
<defs>
<linearGradient id="paint0_linear" x1="0.999998" y1="-4.5" x2="40" y2="50.5" gradientUnits="userSpaceOnUse">
<stop stop-color="#FF00F5"/>
<stop offset="1" stop-color="#0094FF"/>
</linearGradient>
</defs>
</svg>
